<?xml version="1.0" encoding="utf-8"?>
<!-- Generator: Adobe Illustrator 26.0.3, SVG Export Plug-In . SVG Version: 6.00 Build 0)  -->
<svg version="1.1" id="Слой_1" xmlns="http://www.w3.org/2000/svg" xmlns:xlink="http://www.w3.org/1999/xlink" x="0px" y="0px"
	 viewBox="0 0 500 250" style="enable-background:new 0 0 500 250;" xml:space="preserve">
<style type="text/css">
	.st0{fill:#FFFFFF;}
</style>
<g>
	<path class="st0" d="M409.9,61.3c35.2,0,63.7,28.5,63.7,63.7v0c0,35.2-28.5,63.7-63.7,63.7h0c-35.2,0-63.7-28.5-63.7-63.7v0
		C346.3,89.8,374.8,61.3,409.9,61.3L409.9,61.3 M409.9,165.1c22.1,0,40.1-18,40.1-40.1c0-22.1-18-40.1-40.1-40.1
		c-22.1,0-40.1,18-40.1,40.1C369.8,147.1,387.8,165.1,409.9,165.1 M409.9,57.3c-37.3,0-67.7,30.4-67.7,67.7
		c0,37.3,30.4,67.7,67.7,67.7c37.3,0,67.7-30.4,67.7-67.7C477.6,87.6,447.3,57.3,409.9,57.3L409.9,57.3z M409.9,161.1
		c-19.9,0-36.1-16.2-36.1-36.1c0-19.9,16.2-36.1,36.1-36.1c19.9,0,36.1,16.2,36.1,36.1C446,144.9,429.8,161.1,409.9,161.1
		L409.9,161.1z"/>
</g>
<g>
	<path class="st0" d="M350.6,63.1l-62,62l61.8,61.8h-35l-59-59v59h-24.8V63.1h24.8v59.2l14.7-14.7l44.5-44.5H350.6 M360.3,59.1h-9.7
		h-35h-1.7l-1.2,1.2l-44.5,44.5l-7.9,7.9V63.1v-4h-4h-24.8h-4v4v123.8v4h4h24.8h4v-4v-49.3l52.2,52.2l1.2,1.2h1.7h35h9.7l-6.8-6.8
		l-58.9-58.9l59.2-59.2L360.3,59.1L360.3,59.1z"/>
</g>
<g>
	<path class="st0" d="M203,63.1v123.8h-24.8V63.1H203 M207,59.1h-4h-24.8h-4v4v123.8v4h4H203h4v-4V63.1V59.1L207,59.1z"/>
</g>
<g>
	<path class="st0" d="M58.7,62.9l67.4,90.5V63.1h24.8v123.8h-30.7L51.8,95.1v91.8H27.1V62.9H58.7 M60.7,58.9h-2H27.1h-4v4v123.9v4h4
		h24.8h4v-4v-79.7l61.1,82.1l1.2,1.6h2h30.7h4v-4V63.1v-4h-4h-24.8h-4v4v78.2L61.9,60.5L60.7,58.9L60.7,58.9z"/>
</g>
</svg>
